<?xml version="1.0" standalone="no"?>
<!DOCTYPE svg PUBLIC "-//W3C//DTD SVG 20010904//EN"
 "http://www.w3.org/TR/2001/REC-SVG-20010904/DTD/svg10.dtd">
<svg version="1.0" xmlns="http://www.w3.org/2000/svg"
 width="180.000000pt" height="180.000000pt" viewBox="0 0 180.000000 180.000000"
 preserveAspectRatio="xMidYMid meet">
<metadata>
Created by potrace 1.14, written by Peter Selinger 2001-2017
</metadata>
<g transform="translate(0.000000,180.000000) scale(0.100000,-0.100000)"
fill="#000000" stroke="none">
<path d="M250 900 l0 -760 200 0 200 0 0 248 0 247 44 49 43 50 221 -297 222
-297 246 0 c154 0 244 4 242 10 -1 5 -71 98 -154 207 -84 109 -220 287 -303
396 -84 109 -151 202 -149 206 2 4 131 160 288 345 157 185 287 341 288 347 2
5 -88 9 -230 9 l-233 -1 -260 -330 -260 -331 -3 331 -2 331 -200 0 -200 0 0
-760z"/>
</g>
</svg>
